<svg xmlns="http://www.w3.org/2000/svg" viewBox="0 0 78 35" width="45" height="20">
	<style>
		tspan { white-space:pre }
		.shp0 { fill: #000000 } 
	</style>
	<path class="shp0" d="M35.95 27.3C37.04 26.71 38.05 25.89 38.95 24.86C39.85 25.89 40.86 26.71 41.95 27.3C47.3 32.36 52.51 34.92 57.43 34.92C71.05 34.92 77.49 15.9 77.76 15.09C78.02 14.29 77.89 13.37 77.42 12.75C76.95 12.12 76.23 11.92 75.6 12.22C72.08 13.93 68.88 14.79 66.1 14.79C60.36 14.79 57.66 11.11 56.53 8.81C56.32 8.18 56.07 7.56 55.79 6.95C53.75 2.64 50.2 0.06 46.27 0.06C43.55 0.06 40.96 1.33 38.95 3.6C36.94 1.33 34.35 0.06 31.62 0.06C27.7 0.06 24.14 2.64 22.11 6.95C21.82 7.56 21.57 8.18 21.37 8.81C20.24 11.11 17.53 14.79 11.8 14.79C9.02 14.79 5.82 13.93 2.29 12.22C1.66 11.92 0.94 12.12 0.47 12.75C0 13.37 -0.13 14.29 0.13 15.09C0.4 15.9 6.85 34.92 20.46 34.92C25.39 34.92 30.6 32.36 35.95 27.3Z" />
</svg>